<mxfile host="app.diagrams.net" modified="2025-09-10T00:00:00Z" agent="CFB" version="22.1.0">
  <diagram id="er-projections" name="Projections ER">
    <mxGraphModel dx="1600" dy="900" grid="1" gridSize="10" guides="1" tooltips="1" connect="1" arrows="1" fold="1" page="1" pageScale="1" pageWidth="1920" pageHeight="1080" math="0" shadow="0">
      <root>
        <mxCell id="0"/>
        <mxCell id="1" parent="0"/>
        <mxCell id="tbl-model-runs" value="model_runs" style="shape=table;container=1;childLayout=tableLayout;strokeColor=#7c3aed;fillColor=#ede9fe;rounded=1;" vertex="1" parent="1">
          <mxGeometry x="240" y="180" width="380" height="176" as="geometry"/>
        </mxCell>
        <mxCell id="runs-id" value="id,PK" style="shape=tableRow;" vertex="1" parent="tbl-model-runs"><mxGeometry x="0" y="28" width="380" height="24" as="geometry"/></mxCell>
        <mxCell id="runs-type" value="type,enum" style="shape=tableRow;" vertex="1" parent="tbl-model-runs"><mxGeometry x="0" y="52" width="380" height="24" as="geometry"/></mxCell>
        <mxCell id="tbl-projections" value="projections" style="shape=table;container=1;childLayout=tableLayout;strokeColor=#4f46e5;fillColor=#eef2ff;rounded=1;" vertex="1" parent="1">
          <mxGeometry x="660" y="220" width="380" height="152" as="geometry"/>
        </mxCell>
        <mxCell id="proj-id" value="id,PK" style="shape=tableRow;" vertex="1" parent="tbl-projections"><mxGeometry x="0" y="28" width="380" height="24" as="geometry"/></mxCell>
        <mxCell id="proj-run" value="run_id,FKey" style="shape=tableRow;" vertex="1" parent="tbl-projections"><mxGeometry x="0" y="52" width="380" height="24" as="geometry"/></mxCell>
        <mxCell id="edge-runs-proj" edge="1" parent="1" source="tbl-model-runs" target="tbl-projections" style="endArrow=classic;strokeColor=#334155;endSize=8;">
          <mxGeometry relative="1" as="geometry"/>
        </mxCell>
      </root>
    </mxGraphModel>
  </diagram>
</mxfile>
